# xmcd
#
# Track frame offsets:
#	150
#	17446
#	34739
#	55790
#	75393
#	94448
#	118668
#	137951
#	151322
#	165573
#	189977
#	204739
#	227356
#	249663
#
# Disc length: 3600 seconds
#
# Revision: 1
# Processed by: cddbd v1.5.2PL0 Copyright (c) Steve Scherf et al.
# Submitted via: EasyCDDAExtractor 5.0.6
#
DISCID=ad0e0e0e
DTITLE=Counting Crows - Saturday Nights and Sunday Mornings
DYEAR=2008
DGENRE=AlternRock
TTITLE0=1492
TTITLE1=Hanging Tree
TTITLE2=Los Angeles
TTITLE3=Sundays
TTITLE4=Insignificant
TTITLE5=Cowboy
TTITLE6=Washington Square
TTITLE7=On Almost Any Sunday Morning
TTITLE8=When I Dream of Michelangelo
TTITLE9=Anyone But You
TTITLE10=You Can't Count On Me
TTITLE11=Le Ballet d'Or
TTITLE12=On A Tuesday In Amsterdam Long Ago
TTITLE13=Come Around
EXTD=
EXTT0=
EXTT1=
EXTT2=
EXTT3=
EXTT4=
EXTT5=
EXTT6=
EXTT7=
EXTT8=
EXTT9=
EXTT10=
EXTT11=
EXTT12=
EXTT13=
PLAYORDER=
